<?xml version="1.0" encoding="utf-8"?>
<svg viewBox="-735.853 -54.491 1143.377 281.396" xmlns="http://www.w3.org/2000/svg">
  <defs/>
  <polyline style="stroke: rgb(0, 0, 0); stroke-linecap: round; stroke-linejoin: round; paint-order: fill markers; fill: none; stroke-width: 18px;" points="336.523 155.455 336.67 109.817 281.958 62.592 227.248 109.817 227.248 204.273 391.384 204.273 391.384 62.592 281.958 -31.858 172.529 62.592 172.529 157.048"/>
  <path d="M 102.6 182.48 L 98.02 182.48 L 98.02 187.17 L 95.18 187.17 L 95.18 175.39 L 103.06 175.39 L 103.06 177.58 L 98.02 177.58 L 98.02 180.29 L 102.6 180.29 Z M 108.38 180.88 L 107.48 180.82 Q 106.19 180.82 105.83 181.63 L 105.83 187.17 L 103.1 187.17 L 103.1 178.41 L 105.66 178.41 L 105.75 179.54 Q 106.44 178.25 107.67 178.25 Q 108.1 178.25 108.43 178.35 Z M 111.33 187.33 Q 109.32 187.33 108.07 186.13 Q 106.83 184.93 106.83 183 L 106.83 182.78 Q 106.83 181.43 107.32 180.4 Q 107.82 179.38 108.78 178.81 Q 109.73 178.25 111.04 178.25 Q 112.89 178.25 113.96 179.4 Q 115.02 180.54 115.02 182.59 L 115.02 183.65 L 109.6 183.65 Q 109.75 184.39 110.24 184.81 Q 110.74 185.23 111.52 185.23 Q 112.82 185.23 113.54 184.32 L 114.79 185.79 Q 114.28 186.5 113.35 186.92 Q 112.41 187.33 111.33 187.33 Z M 111.03 180.36 Q 109.83 180.36 109.6 181.94 L 112.35 181.94 L 112.35 181.73 Q 112.37 181.08 112.02 180.72 Q 111.67 180.36 111.03 180.36 Z M 116.79 182.73 Q 116.79 180.65 117.69 179.45 Q 118.59 178.25 120.2 178.25 Q 121.37 178.25 122.17 179.17 L 122.17 174.74 L 124.91 174.74 L 124.91 187.17 L 122.46 187.17 L 122.32 186.23 Q 121.48 187.33 120.18 187.33 Q 118.62 187.33 117.71 186.13 Q 116.79 184.94 116.79 182.73 Z M 119.52 182.9 Q 119.52 185.23 120.88 185.23 Q 121.79 185.23 122.17 184.47 L 122.17 181.13 Q 121.8 180.36 120.9 180.36 Q 119.63 180.36 119.53 182.4 Z M 129.4 187.33 Q 127.39 187.33 126.14 186.13 Q 124.9 184.93 124.9 183 L 124.9 182.78 Q 124.9 181.43 125.39 180.4 Q 125.89 179.38 126.85 178.81 Q 127.8 178.25 129.11 178.25 Q 130.96 178.25 132.03 179.4 Q 133.1 180.54 133.1 182.59 L 133.1 183.65 L 127.67 183.65 Q 127.82 184.39 128.31 184.81 Q 128.81 185.23 129.59 185.23 Q 130.89 185.23 131.61 184.32 L 132.86 185.79 Q 132.35 186.5 131.42 186.92 Q 130.48 187.33 129.4 187.33 Z M 129.1 180.36 Q 127.9 180.36 127.67 181.94 L 130.42 181.94 L 130.42 181.73 Q 130.44 181.08 130.09 180.72 Q 129.74 180.36 129.1 180.36 Z M 138.5 180.88 L 137.6 180.82 Q 136.31 180.82 135.95 181.63 L 135.95 187.17 L 133.22 187.17 L 133.22 178.41 L 135.78 178.41 L 135.87 179.54 Q 136.55 178.25 137.78 178.25 Q 138.22 178.25 138.54 178.35 Z M 142.1 187.17 L 139.36 187.17 L 139.36 178.41 L 142.1 178.41 Z M 139.2 176.16 Q 139.2 175.57 139.62 175.2 Q 140.04 174.83 140.72 174.83 Q 141.39 174.83 141.81 175.2 Q 142.23 175.57 142.23 176.16 Q 142.23 176.74 141.81 177.11 Q 141.39 177.48 140.72 177.48 Q 140.04 177.48 139.62 177.11 Q 139.2 176.74 139.2 176.16 Z M 146.94 185.23 Q 147.52 185.23 147.83 184.92 Q 148.15 184.6 148.14 184.05 L 150.7 184.05 Q 150.7 185.49 149.66 186.41 Q 148.63 187.33 147.01 187.33 Q 145.1 187.33 143.99 186.13 Q 142.89 184.94 142.89 182.82 L 142.89 182.7 Q 142.89 181.38 143.38 180.36 Q 143.87 179.34 144.8 178.8 Q 145.72 178.25 146.98 178.25 Q 148.69 178.25 149.69 179.2 Q 150.7 180.15 150.7 181.76 L 148.14 181.76 Q 148.14 181.08 147.81 180.72 Q 147.47 180.36 146.92 180.36 Q 145.86 180.36 145.68 181.71 Q 145.62 182.14 145.62 182.89 Q 145.62 184.21 145.94 184.72 Q 146.25 185.23 146.94 185.23 Z M 154.15 187.17 L 151.41 187.17 L 151.41 178.41 L 154.15 178.41 Z M 151.25 176.16 Q 151.25 175.57 151.67 175.2 Q 152.09 174.83 152.76 174.83 Q 153.43 174.83 153.85 175.2 Q 154.28 175.57 154.28 176.16 Q 154.28 176.74 153.85 177.11 Q 153.43 177.48 152.76 177.48 Q 152.09 177.48 151.67 177.11 Q 151.25 176.74 151.25 176.16 Z M 160.22 187.17 Q 160.07 186.9 159.96 186.38 Q 159.21 187.33 157.85 187.33 Q 156.62 187.33 155.75 186.58 Q 154.88 185.83 154.88 184.7 Q 154.88 183.28 155.94 182.55 Q 156.99 181.82 159 181.82 L 159.84 181.82 L 159.84 181.36 Q 159.84 180.15 158.79 180.15 Q 157.82 180.15 157.82 181.11 L 155.09 181.11 Q 155.09 179.84 156.18 179.04 Q 157.26 178.25 158.93 178.25 Q 160.61 178.25 161.58 179.07 Q 162.55 179.89 162.57 181.31 L 162.57 185.19 Q 162.59 186.39 162.94 187.03 L 162.94 187.17 Z M 158.51 185.39 Q 159.02 185.39 159.36 185.17 Q 159.69 184.95 159.84 184.68 L 159.84 183.28 L 159.04 183.28 Q 157.62 183.28 157.62 184.56 Q 157.62 184.93 157.87 185.16 Q 158.12 185.39 158.51 185.39 Z M 174.77 182.18 L 170.3 182.18 L 170.3 184.98 L 175.57 184.98 L 175.57 187.17 L 167.46 187.17 L 167.46 175.39 L 175.59 175.39 L 175.59 177.58 L 170.3 177.58 L 170.3 180.06 L 174.77 180.06 Z M 182.67 180.88 L 181.77 180.82 Q 180.48 180.82 180.12 181.63 L 180.12 187.17 L 177.39 187.17 L 177.39 178.41 L 179.95 178.41 L 180.04 179.54 Q 180.73 178.25 181.96 178.25 Q 182.39 178.25 182.72 178.35 Z M 184.05 179.35 Q 184.93 178.25 186.29 178.25 Q 187.74 178.25 188.47 179.11 Q 189.21 179.97 189.22 181.64 L 189.22 187.17 L 186.49 187.17 L 186.49 181.71 Q 186.49 181.01 186.21 180.68 Q 185.92 180.36 185.24 180.36 Q 184.4 180.36 184.05 180.89 L 184.05 187.17 L 181.33 187.17 L 181.33 174.74 L 184.05 174.74 Z M 194.92 183.92 L 196.3 178.41 L 199.17 178.41 L 196.32 187.17 L 193.53 187.17 L 190.68 178.41 L 193.56 178.41 Z M 203.69 187.33 Q 201.68 187.33 200.43 186.13 Q 199.19 184.93 199.19 183 L 199.19 182.78 Q 199.19 181.43 199.68 180.4 Q 200.18 179.38 201.14 178.81 Q 202.09 178.25 203.4 178.25 Q 205.25 178.25 206.32 179.4 Q 207.38 180.54 207.38 182.59 L 207.38 183.65 L 201.96 183.65 Q 202.11 184.39 202.6 184.81 Q 203.09 185.23 203.88 185.23 Q 205.17 185.23 205.9 184.32 L 207.15 185.79 Q 206.64 186.5 205.7 186.92 Q 204.77 187.33 203.69 187.33 Z M 203.39 180.36 Q 202.19 180.36 201.96 181.94 L 204.71 181.94 L 204.71 181.73 Q 204.73 181.08 204.38 180.72 Q 204.03 180.36 203.39 180.36 Z M 212.78 180.88 L 211.89 180.82 Q 210.6 180.82 210.24 181.63 L 210.24 187.17 L 207.51 187.17 L 207.51 178.41 L 210.07 178.41 L 210.15 179.54 Q 210.84 178.25 212.07 178.25 Q 212.51 178.25 212.83 178.35 Z M 217 183.92 L 218.39 178.41 L 221.26 178.41 L 218.4 187.17 L 215.62 187.17 L 212.76 178.41 L 215.64 178.41 Z" transform="matrix(6.093545, 0, 0, 6.093545, -1310.389199, -1099.311556)" style="text-transform: capitalize; line-height: 26.5199px;"/>
  <path transform="matrix(6.093545, 0, 0, 6.093545, -1310.389199, -1099.311556)" style="text-transform: capitalize;"/>
  <path d="M 95.41 212.37 L 95.41 197.44 L 100.78 197.44 Q 103.66 197.44 105.16 198.5 Q 106.66 199.55 106.66 201.56 Q 106.66 202.72 106.13 203.54 Q 105.6 204.36 104.56 204.75 Q 105.73 205.06 106.35 205.9 Q 106.98 206.74 106.98 207.95 Q 106.98 210.14 105.59 211.25 Q 104.2 212.35 101.47 212.37 Z M 99.01 206.02 L 99.01 209.6 L 101.37 209.6 Q 102.35 209.6 102.87 209.16 Q 103.39 208.71 103.39 207.9 Q 103.39 206.03 101.54 206.02 Z M 99.01 203.66 L 100.89 203.66 Q 102.07 203.65 102.57 203.23 Q 103.07 202.81 103.07 201.99 Q 103.07 201.05 102.53 200.63 Q 101.99 200.22 100.78 200.22 L 99.01 200.22 Z M 106.87 206.72 Q 106.87 205.06 107.51 203.76 Q 108.16 202.46 109.37 201.77 Q 110.58 201.07 112.21 201.07 Q 114.7 201.07 116.14 202.61 Q 117.57 204.16 117.57 206.81 L 117.57 206.94 Q 117.57 209.53 116.13 211.05 Q 114.69 212.58 112.23 212.58 Q 109.86 212.58 108.42 211.15 Q 106.99 209.73 106.88 207.3 Z M 110.32 206.94 Q 110.32 208.47 110.8 209.19 Q 111.29 209.91 112.23 209.91 Q 114.07 209.91 114.12 207.07 L 114.12 206.72 Q 114.12 203.74 112.21 203.74 Q 110.48 203.74 110.33 206.31 Z M 122.99 212.37 L 119.53 212.37 L 119.53 196.62 L 122.99 196.62 Z M 129.02 212.37 L 125.55 212.37 L 125.55 201.28 L 129.02 201.28 Z M 125.35 198.41 Q 125.35 197.68 125.88 197.2 Q 126.41 196.73 127.26 196.73 Q 128.11 196.73 128.65 197.2 Q 129.18 197.68 129.18 198.41 Q 129.18 199.15 128.65 199.62 Q 128.11 200.1 127.26 200.1 Q 126.41 200.1 125.88 199.62 Q 125.35 199.15 125.35 198.41 Z M 128.98 206.74 Q 128.98 205.06 129.54 203.77 Q 130.09 202.47 131.13 201.77 Q 132.16 201.07 133.54 201.07 Q 135.27 201.07 136.24 202.24 L 136.37 201.28 L 139.5 201.28 L 139.5 211.95 Q 139.5 213.42 138.82 214.5 Q 138.14 215.58 136.85 216.16 Q 135.56 216.74 133.85 216.74 Q 132.63 216.74 131.49 216.28 Q 130.35 215.82 129.74 215.08 L 131.19 213.05 Q 132.15 214.18 133.73 214.18 Q 136.03 214.18 136.03 211.83 L 136.03 211.48 Q 135.03 212.58 133.51 212.58 Q 131.48 212.58 130.23 211.02 Q 128.98 209.47 128.98 206.86 Z M 132.45 206.96 Q 132.45 208.32 132.96 209.11 Q 133.47 209.91 134.4 209.91 Q 135.51 209.91 136.03 209.16 L 136.03 204.49 Q 135.52 203.74 134.42 203.74 Q 133.49 203.74 132.97 204.56 Q 132.45 205.39 132.45 206.96 Z M 148.04 211.17 Q 146.95 212.58 145.08 212.58 Q 143.25 212.58 142.32 211.51 Q 141.38 210.45 141.38 208.46 L 141.38 201.28 L 144.83 201.28 L 144.83 208.48 Q 144.83 209.91 146.22 209.91 Q 147.41 209.91 147.91 209.06 L 147.91 201.28 L 151.39 201.28 L 151.39 212.37 L 148.15 212.37 Z M 153.05 206.74 Q 153.05 204.11 154.18 202.59 Q 155.32 201.07 157.36 201.07 Q 158.85 201.07 159.86 202.24 L 159.86 196.62 L 163.33 196.62 L 163.33 212.37 L 160.22 212.37 L 160.05 211.18 Q 158.98 212.58 157.34 212.58 Q 155.36 212.58 154.2 211.06 Q 153.05 209.54 153.05 206.74 Z M 156.5 206.96 Q 156.5 209.91 158.22 209.91 Q 159.37 209.91 159.86 208.95 L 159.86 204.72 Q 159.39 203.74 158.24 203.74 Q 156.64 203.74 156.51 206.32 Z M 169.17 212.37 L 165.71 212.37 L 165.71 196.62 L 169.17 196.62 Z M 176.92 212.58 Q 174.37 212.58 172.79 211.05 Q 171.21 209.53 171.21 207.09 L 171.21 206.8 Q 171.21 205.1 171.84 203.8 Q 172.47 202.5 173.68 201.78 Q 174.89 201.07 176.55 201.07 Q 178.89 201.07 180.24 202.52 Q 181.6 203.97 181.6 206.57 L 181.6 207.91 L 174.72 207.91 Q 174.91 208.84 175.53 209.38 Q 176.16 209.91 177.16 209.91 Q 178.8 209.91 179.72 208.76 L 181.3 210.63 Q 180.65 211.52 179.47 212.05 Q 178.28 212.58 176.92 212.58 Z M 176.53 203.74 Q 175.01 203.74 174.72 205.75 L 178.21 205.75 L 178.21 205.48 Q 178.23 204.65 177.79 204.19 Q 177.35 203.74 176.53 203.74 Z M 185.31 201.28 L 185.31 212.75 Q 185.3 214.72 184.18 215.78 Q 183.06 216.85 181.06 216.85 Q 180.2 216.85 179.43 216.68 L 179.43 214.06 Q 180.03 214.15 180.41 214.15 Q 181.84 214.15 181.84 212.73 L 181.84 201.28 Z M 181.59 198.41 Q 181.59 197.68 182.12 197.2 Q 182.65 196.73 183.5 196.73 Q 184.35 196.73 184.89 197.2 Q 185.42 197.68 185.42 198.41 Q 185.42 199.15 184.89 199.62 Q 184.35 200.1 183.5 200.1 Q 182.65 200.1 182.12 199.62 Q 181.59 199.15 181.59 198.41 Z M 190.79 201.28 L 190.9 202.58 Q 192.05 201.07 194.07 201.07 Q 195.8 201.07 196.66 202.11 Q 197.51 203.14 197.54 205.22 L 197.54 212.37 L 194.08 212.37 L 194.08 205.37 Q 194.08 204.53 193.74 204.13 Q 193.4 203.74 192.51 203.74 Q 191.49 203.74 191 204.54 L 191 212.37 L 187.55 212.37 L 187.55 201.28 Z M 203.31 212.37 L 199.84 212.37 L 199.84 201.28 L 203.31 201.28 Z M 199.63 198.41 Q 199.63 197.68 200.17 197.2 Q 200.7 196.73 201.55 196.73 Q 202.4 196.73 202.94 197.2 Q 203.47 197.68 203.47 198.41 Q 203.47 199.15 202.94 199.62 Q 202.4 200.1 201.55 200.1 Q 200.7 200.1 200.17 199.62 Q 199.63 199.15 199.63 198.41 Z M 208.86 201.28 L 208.97 202.58 Q 210.12 201.07 212.14 201.07 Q 213.87 201.07 214.73 202.11 Q 215.58 203.14 215.61 205.22 L 215.61 212.37 L 212.15 212.37 L 212.15 205.37 Q 212.15 204.53 211.81 204.13 Q 211.47 203.74 210.58 203.74 Q 209.57 203.74 209.07 204.54 L 209.07 212.37 L 205.62 212.37 L 205.62 201.28 Z M 215.32 206.74 Q 215.32 205.06 215.87 203.77 Q 216.43 202.47 217.46 201.77 Q 218.5 201.07 219.87 201.07 Q 221.6 201.07 222.58 202.24 L 222.7 201.28 L 225.84 201.28 L 225.84 211.95 Q 225.84 213.42 225.16 214.5 Q 224.47 215.58 223.18 216.16 Q 221.89 216.74 220.19 216.74 Q 218.97 216.74 217.82 216.28 Q 216.68 215.82 216.08 215.08 L 217.52 213.05 Q 218.49 214.18 220.07 214.18 Q 222.36 214.18 222.36 211.83 L 222.36 211.48 Q 221.37 212.58 219.85 212.58 Q 217.82 212.58 216.57 211.02 Q 215.32 209.47 215.32 206.86 Z M 218.78 206.96 Q 218.78 208.32 219.3 209.11 Q 219.81 209.91 220.73 209.91 Q 221.85 209.91 222.36 209.16 L 222.36 204.49 Q 221.86 203.74 220.75 203.74 Q 219.83 203.74 219.31 204.56 Q 218.78 205.39 218.78 206.96 Z" transform="matrix(6.093545, 0, 0, 6.093545, -1310.389199, -1099.311556)" style="text-transform: capitalize;"/>
</svg>