<?xml version="1.0" encoding="utf-8"?>
<!-- Generator: Adobe Adobe Illustrator 24.2.0, SVG Export Plug-In . SVG Version: 6.00 Build 0)  -->
<svg version="1.1" id="Layer_1" xmlns="http://www.w3.org/2000/svg" xmlns:xlink="http://www.w3.org/1999/xlink" x="0px" y="0px"
	 width="646px" height="810px" viewBox="0 0 646 810" style="enable-background:new 0 0 646 810;" xml:space="preserve">
<path d="M582.15,623.29c-0.71-9.74-1.7-19.45-2.17-29.2c-0.26-11.41-1.6-22.74-3.09-34.05c-1.05-11.28-3.13-22.42-5.31-33.52
	c-1.85-13.42-2.7-19.13-3.94-38.47c-0.75-9.76-1.53-19.51-2.33-29.27c-0.23-7.78-0.69-15.55-1.13-23.32
	c-0.53-8.04-1.14-16.08-1.76-24.12c-0.42-6.66-0.3-13.35-0.33-20.02c0-2.93-0.29-3.22-1.2-5.37c-0.29-0.93-0.79-1.74-1.35-2.52
	c-0.62-1.14-1-2.42-1.84-3.43c-0.19-0.25-0.38-0.49-0.57-0.74c-0.25-0.34-0.5-0.69-0.75-1.03c-4.03-5.92-8.62-11.45-12.29-17.63
	c-4.24-7.06-8.75-13.95-13.29-20.81c-4.9-7.73-9.5-15.66-14.69-23.21c-5.74-8.47-12.15-16.46-18.21-24.7
	c-5.19-6.64-9.7-13.8-14.98-20.37c-8.35-10.11-16.26-20.59-24.71-30.62c-11.13-12.92-10.1-12.49-19.39-24.02
	c-13.22-15.31-15.12-17.17-27.36-34.42c-7.29-9.92-14.78-19.68-22.2-29.49c-7.54-11.9-16.03-23.14-23.55-35.07
	c-7.23-10.64-14.72-21.11-22.33-31.48c-3.9-5.61-7.59-11.37-11.74-16.8l-1.7-2.48c-1.75-2.47-3.59-4.86-5.48-7.22
	c-0.83-1.16-1.66-2.32-2.51-3.47c-0.7-1.72-1.74-3.31-3.06-4.64c-2.74-2.44-6.09-4.19-9.86-4.08c-1.74-0.01-3.47,0.26-5.19,0.55
	c-2.79,0.74-5.21,2.27-7.58,3.86c-2.49,1.51-5.04,2.92-7.38,4.65c-7.46,5.41-13.05,12.84-19.72,19.13
	c-3.99,4.09-8.2,7.96-11.99,12.24c-3.14,3.72-5.86,7.82-9.59,11.02c-7.28,7.27-14.98,14.12-21.93,21.71
	c-9.5,11.11-6.68,8.48-14.27,17.45c-6.01,8.12-12.31,14.96-22.71,28.8c-5.5,7.83-10.46,16.03-15.74,24.02
	c-0.87,1.36-1.77,2.7-2.7,4.02c-1.23,1.46-2.5,2.89-3.68,4.39c-6.38,7.65-12.19,15.75-17.89,23.91
	c-5.32,7.14-10.29,14.51-14.92,22.11c-6.65,9.09-12.66,18.61-18.7,28.1c-9.69,14.79-17.27,30.82-25.18,46.61
	c-2.68,6.08-6.46,11.61-9.28,17.63c-4.09,7.54-7.55,15.38-10.89,23.28c-0.12,0.37-0.2,0.75-0.29,1.13
	c-1.37,3.79-1.53,7.9-1.67,11.94c-0.27,3.05-0.71,6.1-0.98,9.15c-1.05,9.16-1.43,18.38-2.07,27.56c-0.75,5.73-0.87,11.51-0.83,17.29
	c0.17,12.24-0.67,24.54,1.07,36.7c0.69,8.57,2.25,17.02,3.48,25.53c0.98,11.21,2.68,22.33,4.63,33.4c0.31,2.65,0.43,2.33,1.52,10.56
	c0.87,4.89,2.1,9.72,2.97,14.62c2,11.55,1.69,9.57,2.63,17.95c1.09,12.33,1.76,24.72,3.65,36.96c0.96,6.13,2.49,12.16,3.79,18.23
	c2.28,9.02,3.86,18.17,5.19,27.37c0.41,2.51,1.57,4.83,2.08,7.33c0.66,2.66,0.92,5.48,1.57,8.08c0.23-0.01,0.47-0.08,0.7-0.11
	c-0.16-0.03-0.32-0.06-0.49-0.09c-0.03-0.01-0.03,0-0.05-0.01c0.16-0.9,0.32-1.81,0.47-2.72c0.43-2.55,0.88-5.11,0.98-7.7
	c0.12-1.91-0.11-3.84,0.29-5.73c2.84-14.77,3.02-29.8,3.41-44.79c1.08-16.7,3.88-33.34,3.02-50.11c-0.55-8.32-1.65-16.59-3.11-24.8
	c-1.13-9.28-2.86-18.48-4.26-27.72c-0.04-0.29-0.08-0.57-0.12-0.86c-0.68-7.14-1.52-14.26-2.58-21.35
	c-0.41-2.58-0.84-5.16-1.26-7.73c-0.54-5.49-1.34-10.95-1.66-16.46c-0.14-12.62-0.19-25.26,0.1-37.88
	c-0.08-3.61,0.81-2.13,1.05-12.78c0.5-6.91,0.89-13.83,1.67-20.72c0.37-3.94,0.99-7.86,1.12-11.81c0.15-0.4,0.29-0.8,0.4-1.22
	c0.15-0.53,0.25-0.97,0.32-1.37c0.31-0.68,0.61-1.36,0.9-2.05c4.36-10.02,9.57-19.66,14.97-29.16c2.9-6.49,6.27-12.76,9.42-19.13
	c5.33-10.52,10.76-21,17.28-30.85c5.27-8.14,10.29-16.45,16-24.29c4.89-6.62,8.65-14,13.71-20.49c4.83-6.66,9.49-13.44,14.42-20.02
	c4.85-6.01,10.13-11.7,14.15-18.33c5.29-7.93,10.5-16.7,15.95-24.21c0.35-0.46,0.7-0.91,1.04-1.37c5.67-7.27,11.62-14.3,17.22-21.62
	c9.06-10.78,8.51-11.07,15.36-18.59c7.59-7.94,15.77-15.28,23.49-23.09c2.23-2.37,4.06-5.07,6.14-7.56
	c5.06-5.68,10.69-10.83,15.98-16.29c4.01-3.92,7.56-8.28,11.75-12.01c0.16-0.11,0.32-0.22,0.49-0.33c1.62,2.24,3.21,4.49,4.88,6.69
	c1.72,2.54,3.48,5.05,5.24,7.56c2.6,3.91,5.26,7.77,8.09,11.51c4.57,6.38,9.17,12.75,13.69,19.16
	c6.88,10.12,13.37,20.49,20.64,30.34c3.58,5.34,6.83,10.9,10.82,15.96c11.69,14.98,22.56,30.57,34.11,45.66
	c5.57,7.22,11.75,13.96,17.66,20.91c9.49,12.51,19.77,24.38,29.63,36.6c4.25,5.41,8.5,10.83,12.88,16.15
	c8.95,12.58,18.34,24.83,27.52,37.24c6.02,8.67,11.4,17.75,17.02,26.69c5.98,8.82,11.44,17.97,17.24,26.91
	c3.37,4.55,6.65,9.17,10.05,13.7c0,0.02,0,0.04,0,0.06l-0.55-0.71c0.21,0.26,0.38,0.54,0.55,0.83c-0.06,20.01,2.59,39.9,3.11,59.9
	c0.92,16.08,2.48,32.13,3.56,48.21c1.5,16.23,4.02,32.32,7.05,48.33c0.16,0.91,0.31,1.82,0.46,2.72c1.04,9.4,2.33,18.77,3.21,28.19
	c0.43,8.1,0.67,16.21,1.34,24.3c0.66,8.22,1.53,16.42,1.79,24.66c0.39,10.55,0.1,21.12,0.19,31.68c-0.06,7.9,0.14,15.82-0.34,23.71
	c-0.8,7.58-0.94,15.2-2.14,22.74c-0.06,0.48-0.13,0.97-0.19,1.45c-0.79,5.2-1.89,10.32-3.7,15.27c-0.65,2.59-1.57,5.09-2.54,7.58
	c-1.44,3.03-2.78,6.11-4.25,9.13c-0.27,0.39-0.53,0.79-0.79,1.18c-2.81-0.36-5.64-0.59-8.47-0.8c-1.96-0.17-3.91-0.43-5.86-0.67
	c-2.17-0.33-4.36-0.67-6.51-0.91c-9.7-1.01-19.4-1.91-29.12-2.72c-16.02-0.82-32.03-1.57-48.07-1.32
	c-21.37,0.06-42.74-0.13-64.11,0.1c-13.39,0.67-26.78,1.62-40.14,2.81c-9.87,0.7-19.72,1.73-29.61,1.96
	c-8.67,0.27-17.35,0.03-26.02,0.16c-4.96-0.08-9.88,0.64-14.82,0.94c-3.57,0.02-7.14,0.06-10.71,0.09
	c-0.01-0.33-0.02-0.66-0.04-0.98c-0.13-1.87-0.36-3.74-0.61-5.6c-0.49-13.18,0.01-26.42-0.14-39.62c0.05-11.7,0.12-23.4,0.39-35.1
	c0.04-4.61,0.56-9.2,0.72-13.81c0.26-5.52,0.08-11.05,0.13-16.57c-0.02-11.68,0.07-23.37-0.09-35.06
	c-0.29-8.7-1.28-17.43-0.39-26.13c0.57-6.42,0.7-12.88,1.28-19.3c0.37-7.3,0.15-14.61,0.2-21.92c-0.07-8.58,0.26-17.2-0.52-25.76
	c-0.97-11.34-1.9-22.68-3.53-33.94c-0.49-4.03-1.04-8.06-1.97-12.02c-0.2-0.87-0.38-1.74-0.54-2.61c-0.17-1.53-0.32-3.06-0.48-4.6
	c-0.51-4.62-1.01-9.24-1.61-13.84c-0.2-4.02-0.27-8.08-0.13-12.12c2.01-2.22,3.7-4.71,5.33-7.22c4.9-5.06,9.5-10.4,13.39-16.28
	c4.25-7.79,7.28-16.18,10.92-24.27c1.4-3.29,3.2-6.39,4.89-9.55c1.67-3.22,3.23-6.52,5.26-9.53c3.3-4.43,5.93-9.3,8.92-13.93
	c2.38-3.89,5-7.64,7.19-11.66c3.94-6.98,7.85-13.97,11.88-20.9c2.04-3.93,3.87-7.97,6.09-11.8c0.95-1.77,2.03-3.45,3.14-5.12
	c1.81,3.52,3.64,7.03,5.57,10.49c3.91,6.08,8.18,11.92,11.36,18.45c2.87,5.56,5.53,11.24,8.3,16.85c3.44,5.72,6.83,11.49,9.87,17.44
	c0.9,1.53,2.01,2.94,3.12,4.33c0.62,0.9,1.21,1.82,1.76,2.77c4.14,6.48,8.39,12.9,12.58,19.35c2.69,4.9,6.45,9.1,9.79,13.56
	c-0.73-0.94-1.45-1.88-2.18-2.82c1.37,1.82,2.74,3.63,4.12,5.44c0.77,1,1.56,2,2.34,2.99c4.99,6.51,8.32,14.12,13.64,20.4
	c0.28,0.35,0.57,0.71,0.86,1.06c0,0.52,0,1.04,0,1.56c0.04,9.47,0.01,18.96-1.13,28.37c-0.49,2.68-1.45,5.24-2.01,7.9
	c-0.56,3.55-1.02,7.13-1.42,10.7c-0.49,4.31-0.26,8.66-0.49,12.98c-0.24,4.41-0.77,8.8-1.02,13.22c-0.04,0.49-0.09,0.98-0.13,1.47
	c-0.05,0.34-0.11,0.68-0.16,1.03c-0.82,5.43-2.48,10.69-2.85,16.19c-0.35,3.08-0.22,6.18-0.39,9.27c-0.14,2.79-0.51,5.57-0.2,8.36
	c1.02,19.38,3.07,38.68,5.34,57.94c0.62,5.16,0.45,10.37,0.87,15.55c0.94,11.68,1.76,23.41,3.72,34.97
	c1.82-10.99,4.53-21.8,6.73-32.72c1.09-5.5,2.75-10.87,3.47-16.44c2.8-20.41,4.56-40.95,5.8-61.5c0.72-4.06,1.14-8.17,1.54-12.27
	c0.72-3.85,2.04-7.56,2.62-11.44c1.44-7.8,1.77-15.74,2.42-23.62c0.23-4.75,0.01-9.52,0.64-14.24c0.02-0.18,0.05-0.35,0.07-0.53
	c0.08-0.51,0.15-1.01,0.23-1.52c3.63-12.37,4.16-25.4,4.15-38.22c0.01-3.07,0.01-6.15,0.02-9.22c-0.1-3.34,0.5-6.94-1.2-9.95
	c-1.09-3.14-3.61-5.65-6.64-7.12c-4.4-6.66-8.05-13.76-13.26-19.89c-0.22-0.27-0.43-0.55-0.65-0.82c-0.61-0.8-1.22-1.61-1.82-2.41
	c-5.84-8.06-2.33-2.2-8.3-11.52c-3.74-5.91-7.62-11.74-11.42-17.62c-1.62-2.53-3.17-5.09-5.03-7.45c-1.31-1.66-2.19-3.6-3.17-5.46
	c-2.6-4.71-5.26-9.39-8.08-13.97c-3.33-6.7-6.47-13.51-10.03-20.09c-2.72-5.13-6.14-9.8-9.31-14.65c-2.93-4.79-5.22-9.94-7.88-14.89
	c-3.37-6.36-6.65-12.78-10.38-18.93c-4.62-8.48-17.56-10.22-24.15-1.15c-3.07,3.43-3.16,8.25-4.65,12.41
	c-0.74,1.55-1.46,3.11-2.27,4.63c-1.29,2.27-2.93,4.3-4.33,6.49c-4.82,7.23-8.14,15.28-12.7,22.65c-3.5,6.27-7.15,12.44-10.71,18.68
	c-4.25,6.47-8.19,13.14-12.36,19.66c-4.32,5.78-7.17,12.46-10.64,18.74c-4.1,8.64-7.3,17.69-11.69,26.19
	c-4.73,7.99-5.54,5.89-13.92,17.19c-0.43,0.63-0.83,1.28-1.23,1.93c-0.52,0.55-1.04,1.1-1.52,1.69c-1.66,1.22-3.05,2.78-3.96,4.59
	c-2.71,5.07-2.43,10.99-2.49,16.59c-0.12,11.99,0.61,10.48,1.06,16.26c0.77,5.98,1.17,12.01,2.12,17.97
	c0.59,2.94,1.28,5.86,1.78,8.82c-0.17-1.23-0.33-2.47-0.5-3.7c2.09,15.27,2.2,17.09,3.87,36.4c0.97,12.24,0.37,24.55,0.54,36.82
	c0.14,12.13-1.29,24.21-1.83,36.32c-0.12,6.33,0.49,12.64,0.72,18.96c0.18,6.71,0.11,13.42,0.14,20.13
	c-0.01,9.98,0.03,19.97-0.01,29.95c-0.45,9.16-1.15,18.3-0.89,27.48c0.23,19.13,0.19,38.25,0.22,57.38
	c-0.12,8.34,0.79,9.81,0.75,10.97c0.52,4.89-0.29,9.85,0.73,14.68c0.15,1.04,0.33,2.1,0.56,3.15c0.11,0.64,0.27,1.27,0.5,1.88
	c0.31,0.98,0.7,1.93,1.21,2.79c-0.02-0.06-0.03-0.12-0.05-0.18c2.21,4.22,7.13,6.97,11.86,6.95c6.71,0.05,13.42,0.19,20.12,0.17
	c4.47,0.14,8.9-0.62,13.35-0.86c7.78-0.18,15.57-0.09,23.36-0.1c11.5,0.09,22.95-0.99,34.4-1.85c16.96-1.31,33.92-2.99,50.94-3.01
	c27.97,0.17,55.95-0.39,83.92,0.33c11.25,0.71,22.52,0.92,33.73,2.25c15.34,1.31,11.64,1.21,26.98,3c2.08,0.16,4.16,0.3,6.24,0.52
	c0.93,0.18,1.85,0.41,2.75,0.69c0.01,0,0.02,0,0.03,0.01c1.11,0.69,2.3,1.23,3.56,1.57c4.15,0.82,8.93,0.5,12.15-2.49
	c2.09-1.3,3.48-3.4,4.43-5.65c0.34-0.81,0.68-1.62,1.02-2.42c0.42-0.89,0.9-1.76,1.37-2.63c1.8-2.67,3.34-5.47,4.55-8.45
	c2.18-4.52,4.22-9.1,5.92-13.82c1.24-3.77,2.37-7.59,3.56-11.38c1.22-5.47,1.98-11.04,2.68-16.6c1.26-7.8,1.45-15.7,2.26-23.54
	c0.49-7.52,0.29-15.06,0.35-22.58C582.63,650.56,583.17,636.9,582.15,623.29z"/>
</svg>
