<?xml version="1.0" encoding="utf-8"?>
<svg viewBox="-735.853 -54.491 1143.377 281.396" width="1143.377px" height="281.396px" xmlns="http://www.w3.org/2000/svg">
  <defs/>
  <polyline style="stroke: rgb(0, 0, 0); stroke-linecap: round; stroke-linejoin: round; paint-order: fill markers; fill: none; stroke-width: 18px;" points="336.523 155.455 336.67 109.817 281.958 62.592 227.248 109.817 227.248 204.273 391.384 204.273 391.384 62.592 281.958 -31.858 172.529 62.592 172.529 157.048"/>
  <path d="M 102.6 182.48 L 98.02 182.48 L 98.02 187.17 L 95.18 187.17 L 95.18 175.39 L 103.06 175.39 L 103.06 177.58 L 98.02 177.58 L 98.02 180.29 L 102.6 180.29 Z M 109.2 180.88 L 108.3 180.82 Q 107.02 180.82 106.65 181.63 L 106.65 187.17 L 103.92 187.17 L 103.92 178.41 L 106.48 178.41 L 106.57 179.54 Q 107.26 178.25 108.49 178.25 Q 108.93 178.25 109.25 178.35 Z M 114.27 187.33 Q 112.25 187.33 111 186.13 Q 109.76 184.93 109.76 183 L 109.76 182.78 Q 109.76 181.43 110.26 180.4 Q 110.75 179.38 111.71 178.81 Q 112.66 178.25 113.97 178.25 Q 115.82 178.25 116.89 179.4 Q 117.96 180.54 117.96 182.59 L 117.96 183.65 L 112.53 183.65 Q 112.68 184.39 113.17 184.81 Q 113.67 185.23 114.45 185.23 Q 115.75 185.23 116.48 184.32 L 117.72 185.79 Q 117.21 186.5 116.28 186.92 Q 115.34 187.33 114.27 187.33 Z M 113.96 180.36 Q 112.76 180.36 112.53 181.94 L 115.29 181.94 L 115.29 181.73 Q 115.3 181.08 114.95 180.72 Q 114.61 180.36 113.96 180.36 Z M 118.71 182.73 Q 118.71 180.65 119.61 179.45 Q 120.51 178.25 122.12 178.25 Q 123.29 178.25 124.09 179.17 L 124.09 174.74 L 126.83 174.74 L 126.83 187.17 L 124.37 187.17 L 124.24 186.23 Q 123.4 187.33 122.1 187.33 Q 120.54 187.33 119.62 186.13 Q 118.71 184.94 118.71 182.73 Z M 121.44 182.9 Q 121.44 185.23 122.8 185.23 Q 123.7 185.23 124.09 184.47 L 124.09 181.13 Q 123.72 180.36 122.81 180.36 Q 121.55 180.36 121.44 182.4 Z M 132.61 187.33 Q 130.6 187.33 129.35 186.13 Q 128.1 184.93 128.1 183 L 128.1 182.78 Q 128.1 181.43 128.6 180.4 Q 129.1 179.38 130.05 178.81 Q 131.01 178.25 132.32 178.25 Q 134.17 178.25 135.23 179.4 Q 136.3 180.54 136.3 182.59 L 136.3 183.65 L 130.88 183.65 Q 131.03 184.39 131.52 184.81 Q 132.01 185.23 132.8 185.23 Q 134.09 185.23 134.82 184.32 L 136.07 185.79 Q 135.56 186.5 134.62 186.92 Q 133.69 187.33 132.61 187.33 Z M 132.3 180.36 Q 131.11 180.36 130.88 181.94 L 133.63 181.94 L 133.63 181.73 Q 133.65 181.08 133.3 180.72 Q 132.95 180.36 132.3 180.36 Z M 142.7 180.88 L 141.8 180.82 Q 140.51 180.82 140.15 181.63 L 140.15 187.17 L 137.42 187.17 L 137.42 178.41 L 139.98 178.41 L 140.07 179.54 Q 140.75 178.25 141.98 178.25 Q 142.42 178.25 142.74 178.35 Z M 146.56 187.17 L 143.82 187.17 L 143.82 178.41 L 146.56 178.41 Z M 143.66 176.16 Q 143.66 175.57 144.08 175.2 Q 144.5 174.83 145.17 174.83 Q 145.84 174.83 146.26 175.2 Q 146.68 175.57 146.68 176.16 Q 146.68 176.74 146.26 177.11 Q 145.84 177.48 145.17 177.48 Q 144.5 177.48 144.08 177.11 Q 143.66 176.74 143.66 176.16 Z M 151.94 185.23 Q 152.51 185.23 152.83 184.92 Q 153.14 184.6 153.14 184.05 L 155.69 184.05 Q 155.69 185.49 154.66 186.41 Q 153.63 187.33 152 187.33 Q 150.09 187.33 148.99 186.13 Q 147.89 184.94 147.89 182.82 L 147.89 182.7 Q 147.89 181.38 148.38 180.36 Q 148.87 179.34 149.79 178.8 Q 150.72 178.25 151.98 178.25 Q 153.69 178.25 154.69 179.2 Q 155.69 180.15 155.69 181.76 L 153.14 181.76 Q 153.14 181.08 152.8 180.72 Q 152.47 180.36 151.91 180.36 Q 150.85 180.36 150.68 181.71 Q 150.62 182.14 150.62 182.89 Q 150.62 184.21 150.93 184.72 Q 151.25 185.23 151.94 185.23 Z M 159.72 187.17 L 156.99 187.17 L 156.99 178.41 L 159.72 178.41 Z M 156.83 176.16 Q 156.83 175.57 157.25 175.2 Q 157.67 174.83 158.34 174.83 Q 159.01 174.83 159.43 175.2 Q 159.85 175.57 159.85 176.16 Q 159.85 176.74 159.43 177.11 Q 159.01 177.48 158.34 177.48 Q 157.67 177.48 157.25 177.11 Q 156.83 176.74 156.83 176.16 Z M 166.33 187.17 Q 166.19 186.9 166.08 186.38 Q 165.32 187.33 163.97 187.33 Q 162.73 187.33 161.87 186.58 Q 161 185.83 161 184.7 Q 161 183.28 162.05 182.55 Q 163.11 181.82 165.11 181.82 L 165.95 181.82 L 165.95 181.36 Q 165.95 180.15 164.91 180.15 Q 163.94 180.15 163.94 181.11 L 161.21 181.11 Q 161.21 179.84 162.29 179.04 Q 163.37 178.25 165.05 178.25 Q 166.72 178.25 167.69 179.07 Q 168.67 179.89 168.69 181.31 L 168.69 185.19 Q 168.71 186.39 169.06 187.03 L 169.06 187.17 Z M 164.63 185.39 Q 165.14 185.39 165.47 185.17 Q 165.81 184.95 165.95 184.68 L 165.95 183.28 L 165.16 183.28 Q 163.74 183.28 163.74 184.56 Q 163.74 184.93 163.99 185.16 Q 164.24 185.39 164.63 185.39 Z M 181.76 182.18 L 177.29 182.18 L 177.29 184.98 L 182.57 184.98 L 182.57 187.17 L 174.45 187.17 L 174.45 175.39 L 182.58 175.39 L 182.58 177.58 L 177.29 177.58 L 177.29 180.06 L 181.76 180.06 Z M 188.9 180.88 L 188 180.82 Q 186.71 180.82 186.35 181.63 L 186.35 187.17 L 183.62 187.17 L 183.62 178.41 L 186.18 178.41 L 186.27 179.54 Q 186.96 178.25 188.19 178.25 Q 188.62 178.25 188.95 178.35 Z M 192.55 179.35 Q 193.42 178.25 194.78 178.25 Q 196.23 178.25 196.97 179.11 Q 197.7 179.97 197.72 181.64 L 197.72 187.17 L 194.98 187.17 L 194.98 181.71 Q 194.98 181.01 194.7 180.68 Q 194.42 180.36 193.74 180.36 Q 192.89 180.36 192.55 180.89 L 192.55 187.17 L 189.82 187.17 L 189.82 174.74 L 192.55 174.74 Z M 202.73 183.92 L 204.11 178.41 L 206.98 178.41 L 204.13 187.17 L 201.34 187.17 L 198.49 178.41 L 201.37 178.41 Z M 211.93 187.33 Q 209.91 187.33 208.67 186.13 Q 207.42 184.93 207.42 183 L 207.42 182.78 Q 207.42 181.43 207.92 180.4 Q 208.42 179.38 209.37 178.81 Q 210.33 178.25 211.64 178.25 Q 213.48 178.25 214.55 179.4 Q 215.62 180.54 215.62 182.59 L 215.62 183.65 L 210.2 183.65 Q 210.34 184.39 210.84 184.81 Q 211.33 185.23 212.12 185.23 Q 213.41 185.23 214.14 184.32 L 215.38 185.79 Q 214.88 186.5 213.94 186.92 Q 213.01 187.33 211.93 187.33 Z M 211.62 180.36 Q 210.42 180.36 210.2 181.94 L 212.95 181.94 L 212.95 181.73 Q 212.97 181.08 212.62 180.72 Q 212.27 180.36 211.62 180.36 Z M 222.01 180.88 L 221.11 180.82 Q 219.83 180.82 219.46 181.63 L 219.46 187.17 L 216.74 187.17 L 216.74 178.41 L 219.29 178.41 L 219.38 179.54 Q 220.07 178.25 221.3 178.25 Q 221.74 178.25 222.06 178.35 Z M 226.63 183.92 L 228.02 178.41 L 230.89 178.41 L 228.03 187.17 L 225.25 187.17 L 222.39 178.41 L 225.27 178.41 Z" transform="matrix(6.093545, 0, 0, 6.093545, -1310.389199, -1099.311556)" style="text-transform: capitalize; line-height: 26.5199px;"/>
  <path transform="matrix(6.093545, 0, 0, 6.093545, -1310.389199, -1099.311556)" style="text-transform: capitalize;"/>
  <path d="M 95.41 212.37 L 95.41 197.44 L 100.78 197.44 Q 103.66 197.44 105.16 198.5 Q 106.66 199.55 106.66 201.56 Q 106.66 202.72 106.13 203.54 Q 105.6 204.36 104.56 204.75 Q 105.73 205.06 106.35 205.9 Q 106.98 206.74 106.98 207.95 Q 106.98 210.14 105.59 211.25 Q 104.2 212.35 101.47 212.37 Z M 99.01 206.02 L 99.01 209.6 L 101.37 209.6 Q 102.35 209.6 102.87 209.16 Q 103.39 208.71 103.39 207.9 Q 103.39 206.03 101.54 206.02 Z M 99.01 203.66 L 100.89 203.66 Q 102.07 203.65 102.57 203.23 Q 103.07 202.81 103.07 201.99 Q 103.07 201.05 102.53 200.63 Q 101.99 200.22 100.78 200.22 L 99.01 200.22 Z M 108.36 206.72 Q 108.36 205.06 109.01 203.76 Q 109.66 202.46 110.87 201.77 Q 112.08 201.07 113.71 201.07 Q 116.2 201.07 117.63 202.61 Q 119.07 204.16 119.07 206.81 L 119.07 206.94 Q 119.07 209.53 117.63 211.05 Q 116.19 212.58 113.73 212.58 Q 111.36 212.58 109.92 211.15 Q 108.49 209.73 108.37 207.3 Z M 111.82 206.94 Q 111.82 208.47 112.3 209.19 Q 112.78 209.91 113.73 209.91 Q 115.57 209.91 115.61 207.07 L 115.61 206.72 Q 115.61 203.74 113.71 203.74 Q 111.97 203.74 111.83 206.31 Z M 124.24 212.37 L 120.77 212.37 L 120.77 196.62 L 124.24 196.62 Z M 130.01 212.37 L 126.54 212.37 L 126.54 201.28 L 130.01 201.28 Z M 126.34 198.41 Q 126.34 197.68 126.87 197.2 Q 127.4 196.73 128.26 196.73 Q 129.11 196.73 129.64 197.2 Q 130.17 197.68 130.17 198.41 Q 130.17 199.15 129.64 199.62 Q 129.11 200.1 128.26 200.1 Q 127.4 200.1 126.87 199.62 Q 126.34 199.15 126.34 198.41 Z M 131.73 206.74 Q 131.73 205.06 132.29 203.77 Q 132.84 202.47 133.87 201.77 Q 134.91 201.07 136.28 201.07 Q 138.02 201.07 138.99 202.24 L 139.11 201.28 L 142.25 201.28 L 142.25 211.95 Q 142.25 213.42 141.57 214.5 Q 140.89 215.58 139.6 216.16 Q 138.3 216.74 136.6 216.74 Q 135.38 216.74 134.24 216.28 Q 133.1 215.82 132.49 215.08 L 133.94 213.05 Q 134.9 214.18 136.48 214.18 Q 138.78 214.18 138.78 211.83 L 138.78 211.48 Q 137.78 212.58 136.26 212.58 Q 134.23 212.58 132.98 211.02 Q 131.73 209.47 131.73 206.86 Z M 135.2 206.96 Q 135.2 208.32 135.71 209.11 Q 136.22 209.91 137.15 209.91 Q 138.26 209.91 138.78 209.16 L 138.78 204.49 Q 138.27 203.74 137.17 203.74 Q 136.24 203.74 135.72 204.56 Q 135.2 205.39 135.2 206.96 Z M 150.82 211.17 Q 149.73 212.58 147.86 212.58 Q 146.04 212.58 145.1 211.51 Q 144.16 210.45 144.16 208.46 L 144.16 201.28 L 147.61 201.28 L 147.61 208.48 Q 147.61 209.91 149 209.91 Q 150.19 209.91 150.69 209.06 L 150.69 201.28 L 154.17 201.28 L 154.17 212.37 L 150.93 212.37 Z M 155.62 206.74 Q 155.62 204.11 156.76 202.59 Q 157.9 201.07 159.94 201.07 Q 161.43 201.07 162.44 202.24 L 162.44 196.62 L 165.91 196.62 L 165.91 212.37 L 162.8 212.37 L 162.62 211.18 Q 161.56 212.58 159.92 212.58 Q 157.94 212.58 156.78 211.06 Q 155.62 209.54 155.62 206.74 Z M 159.08 206.96 Q 159.08 209.91 160.8 209.91 Q 161.95 209.91 162.44 208.95 L 162.44 204.72 Q 161.97 203.74 160.82 203.74 Q 159.22 203.74 159.09 206.32 Z M 171.51 212.37 L 168.05 212.37 L 168.05 196.62 L 171.51 196.62 Z M 179.01 212.58 Q 176.46 212.58 174.88 211.05 Q 173.3 209.53 173.3 207.09 L 173.3 206.8 Q 173.3 205.1 173.93 203.8 Q 174.56 202.5 175.77 201.78 Q 176.98 201.07 178.64 201.07 Q 180.98 201.07 182.33 202.52 Q 183.69 203.97 183.69 206.57 L 183.69 207.91 L 176.82 207.91 Q 177 208.84 177.63 209.38 Q 178.25 209.91 179.25 209.91 Q 180.89 209.91 181.81 208.76 L 183.39 210.63 Q 182.74 211.52 181.56 212.05 Q 180.37 212.58 179.01 212.58 Z M 178.62 203.74 Q 177.1 203.74 176.82 205.75 L 180.3 205.75 L 180.3 205.48 Q 180.32 204.65 179.88 204.19 Q 179.44 203.74 178.62 203.74 Z M 188.79 201.28 L 188.79 212.75 Q 188.78 214.72 187.66 215.78 Q 186.55 216.85 184.55 216.85 Q 183.69 216.85 182.92 216.68 L 182.92 214.06 Q 183.51 214.15 183.89 214.15 Q 185.33 214.15 185.33 212.73 L 185.33 201.28 Z M 185.07 198.41 Q 185.07 197.68 185.6 197.2 Q 186.14 196.73 186.99 196.73 Q 187.84 196.73 188.37 197.2 Q 188.91 197.68 188.91 198.41 Q 188.91 199.15 188.37 199.62 Q 187.84 200.1 186.99 200.1 Q 186.14 200.1 185.6 199.62 Q 185.07 199.15 185.07 198.41 Z M 193.92 201.28 L 194.03 202.58 Q 195.18 201.07 197.2 201.07 Q 198.93 201.07 199.79 202.11 Q 200.65 203.14 200.68 205.22 L 200.68 212.37 L 197.21 212.37 L 197.21 205.37 Q 197.21 204.53 196.87 204.13 Q 196.53 203.74 195.64 203.74 Q 194.63 203.74 194.13 204.54 L 194.13 212.37 L 190.68 212.37 L 190.68 201.28 Z M 206.23 212.37 L 202.77 212.37 L 202.77 201.28 L 206.23 201.28 Z M 202.56 198.41 Q 202.56 197.68 203.1 197.2 Q 203.63 196.73 204.48 196.73 Q 205.33 196.73 205.86 197.2 Q 206.4 197.68 206.4 198.41 Q 206.4 199.15 205.86 199.62 Q 205.33 200.1 204.48 200.1 Q 203.63 200.1 203.1 199.62 Q 202.56 199.15 202.56 198.41 Z M 211.54 201.28 L 211.65 202.58 Q 212.8 201.07 214.82 201.07 Q 216.55 201.07 217.41 202.11 Q 218.26 203.14 218.29 205.22 L 218.29 212.37 L 214.83 212.37 L 214.83 205.37 Q 214.83 204.53 214.49 204.13 Q 214.15 203.74 213.26 203.74 Q 212.24 203.74 211.75 204.54 L 211.75 212.37 L 208.29 212.37 L 208.29 201.28 Z M 219.8 206.74 Q 219.8 205.06 220.35 203.77 Q 220.91 202.47 221.94 201.77 Q 222.98 201.07 224.35 201.07 Q 226.09 201.07 227.06 202.24 L 227.18 201.28 L 230.32 201.28 L 230.32 211.95 Q 230.32 213.42 229.64 214.5 Q 228.96 215.58 227.66 216.16 Q 226.37 216.74 224.67 216.74 Q 223.45 216.74 222.31 216.28 Q 221.16 215.82 220.56 215.08 L 222 213.05 Q 222.97 214.18 224.55 214.18 Q 226.84 214.18 226.84 211.83 L 226.84 211.48 Q 225.85 212.58 224.33 212.58 Q 222.3 212.58 221.05 211.02 Q 219.8 209.47 219.8 206.86 Z M 223.27 206.96 Q 223.27 208.32 223.78 209.11 Q 224.29 209.91 225.21 209.91 Q 226.33 209.91 226.84 209.16 L 226.84 204.49 Q 226.34 203.74 225.23 203.74 Q 224.31 203.74 223.79 204.56 Q 223.27 205.39 223.27 206.96 Z" transform="matrix(6.093545, 0, 0, 6.093545, -1310.389199, -1099.311556)" style="text-transform: capitalize;"/>
</svg>