<?xml version="1.0" encoding="utf-8"?>
<svg viewBox="94.044 150.74 305.959 77.478" xmlns="http://www.w3.org/2000/svg">
  <polyline style="stroke: rgb(0, 0, 0); stroke-linecap: round; stroke-linejoin: round; paint-order: fill markers; fill: none; stroke-width: 7px;" points="377.04 207.585 377.079 195.652 362.774 183.305 348.47 195.652 348.47 220.348 391.384 220.348 391.384 183.305 362.774 158.611 334.164 183.305 334.164 208.001"/>
  <path d="M 104.817 181.223 L 99.013 181.223 L 99.013 187.17 L 95.414 187.17 L 95.414 172.24 L 105.401 172.24 L 105.401 175.019 L 99.013 175.019 L 99.013 178.454 L 104.817 178.454 Z M 113.177 179.203 L 112.039 179.121 Q 110.409 179.121 109.947 180.146 L 109.947 187.17 L 106.492 187.17 L 106.492 176.075 L 109.732 176.075 L 109.845 177.501 Q 110.716 175.87 112.275 175.87 Q 112.829 175.87 113.239 175.993 Z M 119.593 187.375 Q 117.04 187.375 115.46 185.852 Q 113.881 184.33 113.881 181.889 L 113.881 181.602 Q 113.881 179.9 114.512 178.598 Q 115.143 177.295 116.353 176.583 Q 117.562 175.87 119.224 175.87 Q 121.561 175.87 122.915 177.321 Q 124.269 178.772 124.269 181.366 L 124.269 182.71 L 117.398 182.71 Q 117.583 183.643 118.208 184.176 Q 118.834 184.709 119.829 184.709 Q 121.469 184.709 122.392 183.561 L 123.971 185.427 Q 123.325 186.319 122.141 186.847 Q 120.957 187.375 119.593 187.375 Z M 119.203 178.536 Q 117.686 178.536 117.398 180.546 L 120.885 180.546 L 120.885 180.279 Q 120.905 179.449 120.464 178.993 Q 120.023 178.536 119.203 178.536 Z M 125.226 181.541 Q 125.226 178.905 126.364 177.388 Q 127.502 175.87 129.543 175.87 Q 131.03 175.87 132.045 177.039 L 132.045 171.42 L 135.511 171.42 L 135.511 187.17 L 132.404 187.17 L 132.229 185.981 Q 131.163 187.375 129.522 187.375 Q 127.543 187.375 126.385 185.857 Q 125.226 184.34 125.226 181.541 Z M 128.681 181.756 Q 128.681 184.709 130.404 184.709 Q 131.553 184.709 132.045 183.745 L 132.045 179.521 Q 131.573 178.536 130.425 178.536 Q 128.825 178.536 128.692 181.12 Z M 142.839 187.375 Q 140.286 187.375 138.707 185.852 Q 137.128 184.33 137.128 181.889 L 137.128 181.602 Q 137.128 179.9 137.758 178.598 Q 138.389 177.295 139.599 176.583 Q 140.809 175.87 142.47 175.87 Q 144.808 175.87 146.161 177.321 Q 147.515 178.772 147.515 181.366 L 147.515 182.71 L 140.645 182.71 Q 140.829 183.643 141.455 184.176 Q 142.08 184.709 143.075 184.709 Q 144.716 184.709 145.638 183.561 L 147.218 185.427 Q 146.572 186.319 145.387 186.847 Q 144.203 187.375 142.839 187.375 Z M 142.449 178.536 Q 140.932 178.536 140.645 180.546 L 144.131 180.546 L 144.131 180.279 Q 144.152 179.449 143.711 178.993 Q 143.27 178.536 142.449 178.536 Z M 155.619 179.203 L 154.481 179.121 Q 152.851 179.121 152.389 180.146 L 152.389 187.17 L 148.934 187.17 L 148.934 176.075 L 152.174 176.075 L 152.287 177.501 Q 153.158 175.87 154.717 175.87 Q 155.271 175.87 155.681 175.993 Z M 160.508 187.17 L 157.042 187.17 L 157.042 176.075 L 160.508 176.075 Z M 156.837 173.214 Q 156.837 172.476 157.37 172.004 Q 157.904 171.533 158.755 171.533 Q 159.606 171.533 160.139 172.004 Q 160.672 172.476 160.672 173.214 Q 160.672 173.953 160.139 174.424 Q 159.606 174.896 158.755 174.896 Q 157.904 174.896 157.37 174.424 Q 156.837 173.953 156.837 173.214 Z M 167.321 184.709 Q 168.049 184.709 168.449 184.314 Q 168.849 183.92 168.839 183.212 L 172.079 183.212 Q 172.079 185.037 170.772 186.206 Q 169.464 187.375 167.403 187.375 Q 164.983 187.375 163.589 185.857 Q 162.194 184.34 162.194 181.653 L 162.194 181.51 Q 162.194 179.828 162.815 178.541 Q 163.435 177.254 164.604 176.562 Q 165.773 175.87 167.373 175.87 Q 169.536 175.87 170.808 177.07 Q 172.079 178.27 172.079 180.32 L 168.839 180.32 Q 168.839 179.459 168.419 178.998 Q 167.998 178.536 167.291 178.536 Q 165.947 178.536 165.722 180.249 Q 165.65 180.792 165.65 181.746 Q 165.65 183.417 166.05 184.063 Q 166.45 184.709 167.321 184.709 Z M 177.192 187.17 L 173.727 187.17 L 173.727 176.075 L 177.192 176.075 Z M 173.522 173.214 Q 173.522 172.476 174.055 172.004 Q 174.588 171.533 175.439 171.533 Q 176.29 171.533 176.823 172.004 Q 177.357 172.476 177.357 173.214 Q 177.357 173.953 176.823 174.424 Q 176.29 174.896 175.439 174.896 Q 174.588 174.896 174.055 174.424 Q 173.522 173.953 173.522 173.214 Z M 185.564 187.17 Q 185.38 186.832 185.236 186.175 Q 184.283 187.375 182.57 187.375 Q 181.001 187.375 179.904 186.427 Q 178.807 185.478 178.807 184.043 Q 178.807 182.238 180.14 181.315 Q 181.473 180.392 184.016 180.392 L 185.082 180.392 L 185.082 179.808 Q 185.082 178.28 183.76 178.28 Q 182.529 178.28 182.529 179.49 L 179.074 179.49 Q 179.074 177.88 180.443 176.875 Q 181.811 175.87 183.934 175.87 Q 186.057 175.87 187.287 176.906 Q 188.518 177.941 188.548 179.746 L 188.548 184.658 Q 188.569 186.186 189.02 186.996 L 189.02 187.17 Z M 183.401 184.914 Q 184.047 184.914 184.472 184.637 Q 184.898 184.36 185.082 184.012 L 185.082 182.238 L 184.078 182.238 Q 182.273 182.238 182.273 183.858 Q 182.273 184.33 182.591 184.622 Q 182.909 184.914 183.401 184.914 Z" transform="matrix(1.593181, 0, 0, 1.593181, -53.551186, -119.167076)" style="text-transform: capitalize;"/>
  <path transform="matrix(1.593181, 0, 0, 1.593181, -53.551186, -119.167076)" style="text-transform: capitalize;"/>
  <path d="M 95.414 212.37 L 95.414 197.44 L 100.777 197.44 Q 103.658 197.44 105.16 198.496 Q 106.662 199.553 106.662 201.562 Q 106.662 202.721 106.129 203.541 Q 105.596 204.362 104.56 204.751 Q 105.729 205.059 106.355 205.9 Q 106.98 206.741 106.98 207.951 Q 106.98 210.145 105.591 211.247 Q 104.202 212.349 101.474 212.37 Z M 99.013 206.023 L 99.013 209.601 L 101.371 209.601 Q 102.346 209.601 102.869 209.155 Q 103.391 208.709 103.391 207.899 Q 103.391 206.033 101.536 206.023 Z M 99.013 203.664 L 100.89 203.664 Q 102.069 203.654 102.571 203.234 Q 103.074 202.813 103.074 201.993 Q 103.074 201.05 102.53 200.634 Q 101.987 200.219 100.777 200.219 L 99.013 200.219 Z M 108.355 206.72 Q 108.355 205.059 109.001 203.762 Q 109.647 202.465 110.857 201.767 Q 112.067 201.07 113.697 201.07 Q 116.189 201.07 117.625 202.613 Q 119.06 204.157 119.06 206.812 L 119.06 206.935 Q 119.06 209.53 117.619 211.052 Q 116.179 212.575 113.718 212.575 Q 111.349 212.575 109.914 211.155 Q 108.478 209.735 108.365 207.305 Z M 111.811 206.935 Q 111.811 208.474 112.293 209.191 Q 112.774 209.909 113.718 209.909 Q 115.564 209.909 115.605 207.069 L 115.605 206.72 Q 115.605 203.736 113.697 203.736 Q 111.964 203.736 111.821 206.31 Z M 124.226 212.37 L 120.76 212.37 L 120.76 196.62 L 124.226 196.62 Z M 130.003 212.37 L 126.537 212.37 L 126.537 201.275 L 130.003 201.275 Z M 126.332 198.414 Q 126.332 197.676 126.866 197.204 Q 127.399 196.733 128.25 196.733 Q 129.101 196.733 129.634 197.204 Q 130.167 197.676 130.167 198.414 Q 130.167 199.153 129.634 199.624 Q 129.101 200.096 128.25 200.096 Q 127.399 200.096 126.866 199.624 Q 126.332 199.153 126.332 198.414 Z M 131.72 206.741 Q 131.72 205.059 132.274 203.767 Q 132.828 202.475 133.864 201.773 Q 134.899 201.07 136.273 201.07 Q 138.006 201.07 138.98 202.239 L 139.103 201.275 L 142.241 201.275 L 142.241 211.95 Q 142.241 213.416 141.559 214.498 Q 140.877 215.579 139.585 216.159 Q 138.293 216.738 136.591 216.738 Q 135.371 216.738 134.228 216.277 Q 133.084 215.815 132.479 215.077 L 133.925 213.047 Q 134.889 214.185 136.468 214.185 Q 138.765 214.185 138.765 211.827 L 138.765 211.478 Q 137.77 212.575 136.253 212.575 Q 134.222 212.575 132.971 211.022 Q 131.72 209.468 131.72 206.864 Z M 135.186 206.956 Q 135.186 208.32 135.699 209.114 Q 136.212 209.909 137.135 209.909 Q 138.252 209.909 138.765 209.161 L 138.765 204.495 Q 138.262 203.736 137.155 203.736 Q 136.232 203.736 135.709 204.562 Q 135.186 205.387 135.186 206.956 Z M 150.818 211.17 Q 149.721 212.575 147.855 212.575 Q 146.03 212.575 145.092 211.514 Q 144.153 210.453 144.153 208.463 L 144.153 201.275 L 147.609 201.275 L 147.609 208.484 Q 147.609 209.909 148.993 209.909 Q 150.183 209.909 150.685 209.058 L 150.685 201.275 L 154.161 201.275 L 154.161 212.37 L 150.921 212.37 Z M 155.613 206.741 Q 155.613 204.105 156.751 202.588 Q 157.889 201.07 159.93 201.07 Q 161.417 201.07 162.432 202.239 L 162.432 196.62 L 165.898 196.62 L 165.898 212.37 L 162.791 212.37 L 162.616 211.181 Q 161.55 212.575 159.909 212.575 Q 157.93 212.575 156.772 211.057 Q 155.613 209.54 155.613 206.741 Z M 159.068 206.956 Q 159.068 209.909 160.791 209.909 Q 161.94 209.909 162.432 208.945 L 162.432 204.721 Q 161.96 203.736 160.812 203.736 Q 159.212 203.736 159.079 206.32 Z M 171.503 212.37 L 168.038 212.37 L 168.038 196.62 L 171.503 196.62 Z M 179.003 212.575 Q 176.45 212.575 174.871 211.052 Q 173.292 209.53 173.292 207.089 L 173.292 206.802 Q 173.292 205.1 173.923 203.798 Q 174.553 202.495 175.763 201.783 Q 176.973 201.07 178.634 201.07 Q 180.972 201.07 182.326 202.521 Q 183.679 203.972 183.679 206.566 L 183.679 207.91 L 176.809 207.91 Q 176.994 208.843 177.619 209.376 Q 178.245 209.909 179.239 209.909 Q 180.88 209.909 181.803 208.761 L 183.382 210.627 Q 182.736 211.519 181.551 212.047 Q 180.367 212.575 179.003 212.575 Z M 178.614 203.736 Q 177.096 203.736 176.809 205.746 L 180.295 205.746 L 180.295 205.479 Q 180.316 204.649 179.875 204.193 Q 179.434 203.736 178.614 203.736 Z M 188.78 201.275 L 188.78 212.749 Q 188.769 214.718 187.652 215.785 Q 186.534 216.851 184.534 216.851 Q 183.673 216.851 182.904 216.677 L 182.904 214.062 Q 183.499 214.154 183.878 214.154 Q 185.314 214.154 185.314 212.729 L 185.314 201.275 Z M 185.057 198.414 Q 185.057 197.676 185.591 197.204 Q 186.124 196.733 186.975 196.733 Q 187.826 196.733 188.359 197.204 Q 188.892 197.676 188.892 198.414 Q 188.892 199.153 188.359 199.624 Q 187.826 200.096 186.975 200.096 Q 186.124 200.096 185.591 199.624 Q 185.057 199.153 185.057 198.414 Z M 193.905 201.275 L 194.018 202.578 Q 195.167 201.07 197.187 201.07 Q 198.92 201.07 199.776 202.106 Q 200.632 203.141 200.663 205.223 L 200.663 212.37 L 197.197 212.37 L 197.197 205.367 Q 197.197 204.526 196.859 204.131 Q 196.52 203.736 195.628 203.736 Q 194.613 203.736 194.121 204.536 L 194.121 212.37 L 190.665 212.37 L 190.665 201.275 Z M 206.226 212.37 L 202.76 212.37 L 202.76 201.275 L 206.226 201.275 Z M 202.555 198.414 Q 202.555 197.676 203.088 197.204 Q 203.621 196.733 204.472 196.733 Q 205.324 196.733 205.857 197.204 Q 206.39 197.676 206.39 198.414 Q 206.39 199.153 205.857 199.624 Q 205.324 200.096 204.472 200.096 Q 203.621 200.096 203.088 199.624 Q 202.555 199.153 202.555 198.414 Z M 211.522 201.275 L 211.634 202.578 Q 212.783 201.07 214.803 201.07 Q 216.536 201.07 217.392 202.106 Q 218.248 203.141 218.279 205.223 L 218.279 212.37 L 214.813 212.37 L 214.813 205.367 Q 214.813 204.526 214.475 204.131 Q 214.136 203.736 213.244 203.736 Q 212.229 203.736 211.737 204.536 L 211.737 212.37 L 208.281 212.37 L 208.281 201.275 Z M 219.792 206.741 Q 219.792 205.059 220.346 203.767 Q 220.899 202.475 221.935 201.773 Q 222.971 201.07 224.345 201.07 Q 226.077 201.07 227.052 202.239 L 227.175 201.275 L 230.312 201.275 L 230.312 211.95 Q 230.312 213.416 229.63 214.498 Q 228.949 215.579 227.657 216.159 Q 226.365 216.738 224.662 216.738 Q 223.442 216.738 222.299 216.277 Q 221.156 215.815 220.551 215.077 L 221.996 213.047 Q 222.96 214.185 224.539 214.185 Q 226.836 214.185 226.836 211.827 L 226.836 211.478 Q 225.842 212.575 224.324 212.575 Q 222.294 212.575 221.043 211.022 Q 219.792 209.468 219.792 206.864 Z M 223.258 206.956 Q 223.258 208.32 223.77 209.114 Q 224.283 209.909 225.206 209.909 Q 226.324 209.909 226.836 209.161 L 226.836 204.495 Q 226.334 203.736 225.226 203.736 Q 224.304 203.736 223.781 204.562 Q 223.258 205.387 223.258 206.956 Z" transform="matrix(1.593181, 0, 0, 1.593181, -53.551186, -119.167076)" style="text-transform: capitalize;"/>
</svg>